<?xml version="1.0" encoding="UTF-8" standalone="no"?>
<svg
   xmlns:dc="http://purl.org/dc/elements/1.1/"
   xmlns:cc="http://creativecommons.org/ns#"
   xmlns:rdf="http://www.w3.org/1999/02/22-rdf-syntax-ns#"
   xmlns:svg="http://www.w3.org/2000/svg"
   xmlns="http://www.w3.org/2000/svg"
   viewBox="0 0 474.39999 76.346664"
   height="76.346664"
   width="474.39999"
   xml:space="preserve"
   id="svg2"
   version="1.1"><metadata
     id="metadata8"><rdf:RDF><cc:Work
         rdf:about=""><dc:format>image/svg+xml</dc:format><dc:type
           rdf:resource="http://purl.org/dc/dcmitype/StillImage" /></cc:Work></rdf:RDF></metadata><defs
     id="defs6" /><g
     transform="matrix(1.3333333,0,0,-1.3333333,0,76.346667)"
     id="g10"><g
       transform="scale(0.1)"
       id="g12"><path
         id="path14"
         style="fill:#231f20;fill-opacity:1;fill-rule:nonzero;stroke:none"
         d="m 1294.04,16.7773 h 443.48 V 145.547 h -293.63 v 86.758 h 262.33 V 351.68 h -262.33 v 83.66 H 1733.6 V 563.281 H 1294.04 V 16.7773" /><path
         id="path16"
         style="fill:#231f20;fill-opacity:1;fill-rule:nonzero;stroke:none"
         d="m 2007.71,93.9063 c 0,51.1137 -41.56,92.7147 -92.66,92.7147 -52.34,0 -93.98,-41.601 -93.98,-92.7147 C 1821.07,41.6016 1862.71,0 1915.05,0 c 51.1,0 92.66,41.6016 92.66,93.9063" /><path
         id="path18"
         style="fill:#231f20;fill-opacity:1;fill-rule:nonzero;stroke:none"
         d="m 256.07,7.42188 c 132.754,0 220.942,66.32812 220.942,177.96912 v 1.543 c 0,102.324 -78.035,142.91 -202.946,170.273 -76.582,17.168 -95.339,28.106 -95.339,53.125 v 1.551 c 0,20.312 17.957,35.129 54.679,35.129 48.469,0 103.153,-17.922 153.102,-53.887 l 75.68,106.98 c -59.344,47.598 -131.918,72.54 -224.879,72.54 -131.157,0 -211.5434,-73.329 -211.5434,-174.825 v -1.59 c 0,-111.66 89.7424,-144.453 206.1254,-171.054 74.961,-17.93 92.957,-29.668 92.957,-53.086 v -1.563 c 0,-23.418 -21.903,-37.48 -63.321,-37.48 -63.25,0 -122.597,22.617 -177.2067,65.605 L 0,97.9102 C 67.9102,37.8516 159.242,7.42188 256.07,7.42188" /><path
         id="path20"
         style="fill:#231f20;fill-opacity:1;fill-rule:nonzero;stroke:none"
         d="M 532.266,16.7773 H 683.633 V 172.988 h 75.797 c 135.133,0 234.199,67.871 234.199,197.481 v 1.562 c 0,120.235 -88.91,191.25 -226.399,191.25 H 532.266 Z M 683.633,291.563 v 144.531 h 71.89 c 53.918,0 87.54,-24.211 87.54,-71.114 v -1.562 c 0,-42.969 -33.622,-71.855 -86.747,-71.855 h -72.683" /><path
         id="path22"
         style="fill:#231f20;fill-opacity:1;fill-rule:nonzero;stroke:none"
         d="m 1047.55,16.8164 h 151.37 V 563.281 H 1047.55 V 16.8164" /><path
         id="path24"
         style="fill:#231f20;fill-opacity:1;fill-rule:nonzero;stroke:none"
         d="m 2189.47,513.73 h 34.59 c 37.95,0 63.47,-25.441 63.47,-63.964 0,-37.52 -25.52,-62.715 -63.47,-62.715 h -34.59 z m 34.59,49.122 h -88.5 V 337.91 h 88.5 c 69.29,0 119.56,47.305 119.56,113.086 0,64.805 -50.27,111.856 -119.56,111.856" /><path
         id="path26"
         style="fill:#231f20;fill-opacity:1;fill-rule:nonzero;stroke:none"
         d="M 2381.93,562.852 V 337.91 h 53.93 v 224.942 h -53.93" /><path
         id="path28"
         style="fill:#231f20;fill-opacity:1;fill-rule:nonzero;stroke:none"
         d="m 2588.15,469.785 v -47.238 h 48.67 v -27.149 c -11.4,-7.73 -26.15,-11.804 -42.74,-11.804 -36.96,0 -63.79,28.074 -63.79,67.402 0,36.133 27.07,65.555 60.34,65.555 24.86,0 39.23,-7.918 55.68,-21.582 l 2.14,-1.766 33.97,40.879 -2.1,1.805 c -25.73,21.789 -51.25,30.722 -88.11,30.722 -66.18,0 -118.04,-51.062 -118.04,-116.843 0,-67.012 49.8,-115.606 118.33,-115.606 35.63,0 67.84,11.914 95.7,35.41 l 0.98,0.821 v 99.394 h -101.03" /><path
         id="path30"
         style="fill:#231f20;fill-opacity:1;fill-rule:nonzero;stroke:none"
         d="M 2730.92,562.852 V 337.91 h 53.93 v 224.942 h -53.93" /><path
         id="path32"
         style="fill:#231f20;fill-opacity:1;fill-rule:nonzero;stroke:none"
         d="m 2817.23,562.852 v -50.059 h 66.86 V 337.91 h 53.93 v 174.883 h 66.86 v 50.059 h -187.65" /><path
         id="path34"
         style="fill:#231f20;fill-opacity:1;fill-rule:nonzero;stroke:none"
         d="m 3127.91,435.301 h -50.09 l 25,61.086 z m 0.44,127.441 -0.73,1.699 h -48.28 L 2982.8,337.91 h 55.33 l 20.1,49.219 h 89.24 l 20.1,-49.219 h 56.59 l -95.81,224.832" /><path
         id="path36"
         style="fill:#231f20;fill-opacity:1;fill-rule:nonzero;stroke:none"
         d="m 3303.63,387.344 v 175.508 h -53.92 V 337.91 h 163.51 v 49.434 h -109.59" /><path
         id="path38"
         style="fill:#231f20;fill-opacity:1;fill-rule:nonzero;stroke:none"
         d="M 2189.47,66.4844 V 241.973 h -53.91 V 17.0313 h 163.5 v 49.4531 h -109.59" /><path
         id="path40"
         style="fill:#231f20;fill-opacity:1;fill-rule:nonzero;stroke:none"
         d="M 2330.18,241.973 V 17.0313 h 53.92 V 241.973 h -53.92" /><path
         id="path42"
         style="fill:#231f20;fill-opacity:1;fill-rule:nonzero;stroke:none"
         d="m 2484.79,107.598 h 53.13 c 21.9,0 33,-7.071 33,-21.641 0,-13.9843 -10.59,-21.0742 -31.45,-21.0742 h -54.68 z m 41.82,45.683 h -41.82 v 40.84 h 44.97 c 10.8,0 28.9,-2.558 28.9,-20.41 0,-13.555 -10.77,-20.43 -32.05,-20.43 z M 2586.79,135 c 17.13,11.211 25.51,26.602 25.51,47.461 0,15.742 -5.2,28.613 -15.89,39.238 -13.24,13.281 -33.79,20.274 -59.43,20.274 H 2432.14 V 17.0313 h 107.33 c 54.04,0 85.05,22.9492 85.05,63.5742 0,26.0545 -11.71,43.0465 -37.73,54.3945" /><path
         id="path44"
         style="fill:#231f20;fill-opacity:1;fill-rule:nonzero;stroke:none"
         d="m 2711.41,192.871 h 45.24 c 13.16,0 35.21,-3.691 35.21,-29.199 0,-17.422 -13.08,-28.242 -34.26,-28.242 h -46.19 z m 89.41,-95.996 c 29.42,12.148 45.62,36.68 45.62,69.941 0,21.25 -6.79,39.278 -19.67,52.071 -15.1,15.097 -37.91,23.086 -66.03,23.086 H 2657.48 V 17.0313 h 53.93 v 70.1953 h 33.76 l 47.05,-70.1953 h 63.25 l -54.65,79.8437" /><path
         id="path46"
         style="fill:#231f20;fill-opacity:1;fill-rule:nonzero;stroke:none"
         d="m 3008,114.434 h -50.1 l 25.01,61.093 z m 0.43,127.441 -0.72,1.699 h -48.3 L 2862.88,17.0313 h 55.33 l 20.1,49.2187 h 89.24 l 20.09,-49.2187 h 56.6 l -95.81,224.8437" /><path
         id="path48"
         style="fill:#231f20;fill-opacity:1;fill-rule:nonzero;stroke:none"
         d="M 3183.71,192.871 H 3229 c 13.16,0 35.21,-3.691 35.21,-29.199 0,-17.422 -13.12,-28.242 -34.27,-28.242 h -46.23 z m 89.42,-95.996 c 29.43,12.148 45.62,36.641 45.62,69.941 0,21.25 -6.8,39.278 -19.67,52.071 -15.07,15.097 -37.87,23.086 -65.99,23.086 H 3129.82 V 17.0313 h 53.89 v 70.1953 h 33.76 l 47.1,-70.1953 h 63.24 l -54.68,79.8437" /><path
         id="path50"
         style="fill:#231f20;fill-opacity:1;fill-rule:nonzero;stroke:none"
         d="m 3496.43,241.973 -51.8,-85.43 -50.89,85.43 h -63.14 l 86.73,-136.426 V 17.0313 h 53.94 v 89.4527 l 83.99,131.231 2.75,4.258 h -61.58" /></g></g></svg>