<?xml version="1.0" encoding="UTF-8" standalone="no"?>
<svg
   xmlns:dc="http://purl.org/dc/elements/1.1/"
   xmlns:cc="http://creativecommons.org/ns#"
   xmlns:rdf="http://www.w3.org/1999/02/22-rdf-syntax-ns#"
   xmlns:svg="http://www.w3.org/2000/svg"
   xmlns="http://www.w3.org/2000/svg"
   xmlns:sodipodi="http://sodipodi.sourceforge.net/DTD/sodipodi-0.dtd"
   xmlns:inkscape="http://www.inkscape.org/namespaces/inkscape"
   width="37.20042mm"
   height="16.406736mm"
   viewBox="0 0 37.20042 16.406736"
   version="1.1"
   id="svg2881"
   inkscape:version="1.0.1 (3bc2e813f5, 2020-09-07)"
   sodipodi:docname="Logo IMT Mines Albi-Carmaux.svg">
  <defs
     id="defs2875">
    <clipPath
       clipPathUnits="userSpaceOnUse"
       id="clipPath989">
      <path
         d="M 0,0 H 595.276 V 841.89 H 0 Z"
         id="path987" />
    </clipPath>
    <clipPath
       clipPathUnits="userSpaceOnUse"
       id="clipPath1015">
      <path
         d="M 0,0 H 595.276 V 841.89 H 0 Z"
         id="path1013" />
    </clipPath>
    <clipPath
       clipPathUnits="userSpaceOnUse"
       id="clipPath1031">
      <path
         d="M 0,0 H 595.276 V 841.89 H 0 Z"
         id="path1029" />
    </clipPath>
    <clipPath
       clipPathUnits="userSpaceOnUse"
       id="clipPath1071">
      <path
         d="M 0,0 H 595.276 V 841.89 H 0 Z"
         id="path1069" />
    </clipPath>
    <clipPath
       clipPathUnits="userSpaceOnUse"
       id="clipPath1089">
      <path
         d="M 0,0 H 595.276 V 841.89 H 0 Z"
         id="path1087" />
    </clipPath>
    <clipPath
       clipPathUnits="userSpaceOnUse"
       id="clipPath1107">
      <path
         d="M 0,0 H 595.276 V 841.89 H 0 Z"
         id="path1105" />
    </clipPath>
    <clipPath
       clipPathUnits="userSpaceOnUse"
       id="clipPath1133">
      <path
         d="M 0,0 H 595.276 V 841.89 H 0 Z"
         id="path1131" />
    </clipPath>
    <clipPath
       clipPathUnits="userSpaceOnUse"
       id="clipPath1147">
      <path
         d="M 0,0 H 595.276 V 841.89 H 0 Z"
         id="path1145" />
    </clipPath>
  </defs>
  <sodipodi:namedview
     id="base"
     pagecolor="#ffffff"
     bordercolor="#666666"
     borderopacity="1.0"
     inkscape:pageopacity="0.0"
     inkscape:pageshadow="2"
     inkscape:zoom="3.959798"
     inkscape:cx="39.844382"
     inkscape:cy="35.551731"
     inkscape:document-units="mm"
     inkscape:current-layer="layer1"
     inkscape:document-rotation="0"
     showgrid="false"
     fit-margin-top="0"
     fit-margin-left="0"
     fit-margin-right="0"
     fit-margin-bottom="0"
     inkscape:window-width="1600"
     inkscape:window-height="837"
     inkscape:window-x="-8"
     inkscape:window-y="-8"
     inkscape:window-maximized="1" />
  <metadata
     id="metadata2878">
    <rdf:RDF>
      <cc:Work
         rdf:about="">
        <dc:format>image/svg+xml</dc:format>
        <dc:type
           rdf:resource="http://purl.org/dc/dcmitype/StillImage" />
        <dc:title></dc:title>
      </cc:Work>
    </rdf:RDF>
  </metadata>
  <g
     inkscape:label="Calque 1"
     inkscape:groupmode="layer"
     id="layer1"
     transform="translate(-113.69146,-115.01687)">
    <g
       id="g3747">
      <g
         id="g955"
         transform="matrix(0.35277777,0,0,-0.35277777,113.69298,115.01687)">
        <path
           d="M 0,0 V -26.554 L 25.727,0 Z"
           style="fill:#00bbd6;fill-opacity:1;fill-rule:nonzero;stroke:none"
           id="path957" />
      </g>
      <g
         id="g959"
         transform="matrix(0.35277777,0,0,-0.35277777,131.8447,115.01687)">
        <path
           d="M 0,0 -12.863,-13.276 -25.728,0 V -26.554 H 0 Z"
           style="fill:#00bbd6;fill-opacity:1;fill-rule:nonzero;stroke:none"
           id="path961" />
      </g>
      <g
         id="g963"
         transform="matrix(0.35277777,0,0,-0.35277777,136.38276,115.01687)">
        <path
           d="M 0,0 -12.863,-13.276 H 0 V -26.554 L 25.727,0 Z"
           style="fill:#00bbd6;fill-opacity:1;fill-rule:nonzero;stroke:none"
           id="path965" />
      </g>
      <path
         d="m 113.6929,128.40878 h 0.50342 v -2.36256 h -0.50342 z"
         style="fill:#000000;fill-opacity:1;fill-rule:nonzero;stroke:none;stroke-width:0.352777"
         id="path967" />
      <g
         id="g969"
         transform="matrix(0.35277777,0,0,-0.35277777,115.32545,126.04658)">
        <path
           d="M 0,0 1.517,-4.605 H 1.536 L 2.972,0 H 4.98 V -6.697 H 3.643 v 4.746 H 3.626 L 2.035,-6.697 H 0.936 l -1.59,4.7 h -0.019 v -4.7 H -2.008 V 0 Z"
           style="fill:#000000;fill-opacity:1;fill-rule:nonzero;stroke:none"
           id="path971" />
      </g>
      <g
         id="g973"
         transform="matrix(0.35277777,0,0,-0.35277777,117.30394,126.48339)">
        <path
           d="M 0,0 V 1.239 H 5.315 V 0 H 3.371 V -5.458 H 1.944 V 0 Z"
           style="fill:#000000;fill-opacity:1;fill-rule:nonzero;stroke:none"
           id="path975" />
      </g>
      <g
         id="g977"
         transform="matrix(0.35277777,0,0,-0.35277777,120.94549,126.04658)">
        <path
           d="M 0,0 1.517,-4.605 H 1.536 L 2.972,0 H 4.98 V -6.697 H 3.643 v 4.746 H 3.626 L 2.035,-6.697 H 0.936 l -1.59,4.7 h -0.019 v -4.7 H -2.008 V 0 Z"
           style="fill:#000000;fill-opacity:1;fill-rule:nonzero;stroke:none"
           id="path979" />
      </g>
      <path
         d="m 123.08985,128.40878 h 0.45508 v -1.71062 h -0.45508 z m 0,-1.97485 h 0.45508 v -0.38665 h -0.45508 z"
         style="fill:#000000;fill-opacity:1;fill-rule:nonzero;stroke:none;stroke-width:0.352777"
         id="path981" />
      <g
         id="g983"
         transform="matrix(0.35277777,0,0,-0.35277777,95.544957,160.49955)">
        <g
           id="g985"
           clip-path="url(#clipPath989)">
          <g
             id="g991"
             transform="translate(81.5815,95.8143)">
            <path
               d="m 0,0 v -0.675 h 0.027 c 0.163,0.281 0.375,0.485 0.636,0.615 0.26,0.127 0.528,0.191 0.8,0.191 0.345,0 0.629,-0.048 0.849,-0.146 0.221,-0.096 0.396,-0.23 0.524,-0.402 0.126,-0.173 0.215,-0.382 0.267,-0.629 0.051,-0.247 0.078,-0.52 0.078,-0.82 v -2.983 h -1.29 v 2.739 c 0,0.401 -0.062,0.698 -0.183,0.896 -0.121,0.196 -0.335,0.296 -0.646,0.296 -0.349,0 -0.604,-0.108 -0.763,-0.324 C 0.142,-1.458 0.063,-1.814 0.063,-2.308 v -2.541 h -1.29 V 0 Z"
               style="fill:#000000;fill-opacity:1;fill-rule:nonzero;stroke:none"
               id="path993" />
          </g>
          <g
             id="g995"
             transform="translate(87.097,92.1284)">
            <path
               d="m 0,0 c 0.193,-0.194 0.472,-0.291 0.836,-0.291 0.26,0 0.485,0.067 0.671,0.203 0.189,0.134 0.304,0.276 0.347,0.426 H 2.989 C 2.807,-0.243 2.529,-0.66 2.153,-0.91 1.778,-1.16 1.324,-1.284 0.79,-1.284 c -0.369,0 -0.703,0.06 -0.999,0.183 -0.298,0.121 -0.548,0.295 -0.754,0.519 -0.205,0.226 -0.365,0.494 -0.478,0.808 -0.112,0.312 -0.168,0.655 -0.168,1.031 0,0.363 0.057,0.701 0.173,1.013 0.115,0.312 0.279,0.583 0.491,0.811 0.212,0.228 0.465,0.408 0.758,0.539 0.295,0.132 0.619,0.198 0.977,0.198 0.401,0 0.749,-0.08 1.045,-0.241 C 2.133,3.419 2.377,3.205 2.567,2.935 2.758,2.667 2.896,2.36 2.98,2.017 3.065,1.672 3.096,1.312 3.072,0.938 h -3.39 C -0.299,0.507 -0.195,0.194 0,0 M 1.458,2.551 C 1.303,2.726 1.069,2.814 0.754,2.814 0.548,2.814 0.377,2.778 0.241,2.706 0.105,2.634 -0.005,2.544 -0.087,2.438 -0.168,2.332 -0.226,2.219 -0.26,2.102 -0.293,1.982 -0.312,1.876 -0.318,1.781 H 1.781 C 1.72,2.12 1.613,2.376 1.458,2.551"
               style="fill:#000000;fill-opacity:1;fill-rule:nonzero;stroke:none"
               id="path997" />
          </g>
          <g
             id="g999"
             transform="translate(91.9637,92.1708)">
            <path
               d="m 0,0 c 0.057,-0.103 0.131,-0.188 0.223,-0.253 0.091,-0.066 0.195,-0.115 0.314,-0.146 0.117,-0.031 0.24,-0.047 0.367,-0.047 0.09,0 0.187,0.011 0.287,0.033 0.099,0.022 0.19,0.057 0.272,0.104 0.082,0.046 0.15,0.108 0.204,0.186 0.054,0.079 0.083,0.177 0.083,0.296 0,0.201 -0.13,0.35 -0.387,0.451 -0.258,0.1 -0.617,0.2 -1.076,0.299 -0.189,0.044 -0.372,0.097 -0.55,0.156 -0.179,0.058 -0.339,0.137 -0.478,0.233 -0.139,0.098 -0.252,0.219 -0.336,0.366 -0.085,0.147 -0.126,0.327 -0.126,0.54 0,0.313 0.058,0.568 0.177,0.769 0.117,0.2 0.274,0.358 0.467,0.474 0.193,0.115 0.412,0.196 0.654,0.244 0.242,0.047 0.491,0.07 0.746,0.07 0.255,0 0.5,-0.024 0.741,-0.075 C 1.821,3.649 2.033,3.566 2.221,3.447 2.41,3.327 2.565,3.17 2.69,2.973 2.814,2.777 2.888,2.528 2.912,2.227 H 1.686 C 1.667,2.484 1.574,2.657 1.404,2.747 1.235,2.839 1.034,2.884 0.804,2.884 0.732,2.884 0.652,2.88 0.568,2.87 0.483,2.86 0.405,2.84 0.336,2.809 0.266,2.778 0.207,2.732 0.158,2.674 0.111,2.613 0.087,2.533 0.087,2.433 0.087,2.314 0.128,2.218 0.214,2.142 0.298,2.067 0.408,2.007 0.545,1.959 0.681,1.914 0.838,1.871 1.013,1.834 1.189,1.796 1.368,1.755 1.55,1.711 1.737,1.669 1.921,1.615 2.1,1.553 2.277,1.49 2.437,1.407 2.576,1.304 2.715,1.201 2.828,1.072 2.912,0.918 2.997,0.766 3.04,0.577 3.04,0.351 3.04,0.033 2.977,-0.234 2.853,-0.449 2.73,-0.667 2.567,-0.84 2.367,-0.971 2.168,-1.102 1.938,-1.195 1.682,-1.247 c -0.259,-0.054 -0.52,-0.08 -0.787,-0.08 -0.273,0 -0.539,0.028 -0.8,0.085 -0.26,0.056 -0.492,0.149 -0.695,0.281 -0.203,0.131 -0.369,0.304 -0.499,0.52 -0.131,0.215 -0.203,0.487 -0.214,0.812 h 1.226 C -0.087,0.227 -0.057,0.103 0,0"
               style="fill:#000000;fill-opacity:1;fill-rule:nonzero;stroke:none"
               id="path1001" />
          </g>
        </g>
      </g>
      <g
         id="g1003"
         transform="matrix(0.35277777,0,0,-0.35277777,131.40619,126.04633)">
        <path
           d="M 0,0 2.427,-6.697 H 0.945 L 0.454,-5.205 H -1.971 L -2.48,-6.697 H -3.916 L -1.463,0 Z m 0.082,-4.108 -0.817,2.457 h -0.019 l -0.845,-2.457 z"
           style="fill:#000000;fill-opacity:1;fill-rule:nonzero;stroke:none"
           id="path1005" />
      </g>
      <path
         d="m 132.86179,128.40878 h -0.45508 v -2.36256 h 0.45508 z"
         style="fill:#000000;fill-opacity:1;fill-rule:nonzero;stroke:none;stroke-width:0.352777"
         id="path1007" />
      <g
         id="g1009"
         transform="matrix(0.35277777,0,0,-0.35277777,95.544957,160.49955)">
        <g
           id="g1011"
           clip-path="url(#clipPath1015)">
          <g
             id="g1017"
             transform="translate(108.1423,97.6613)">
            <path
               d="m 0,0 v -2.438 h 0.017 c 0.159,0.25 0.373,0.433 0.642,0.549 0.269,0.116 0.549,0.173 0.84,0.173 0.236,0 0.469,-0.051 0.7,-0.15 0.23,-0.1 0.437,-0.254 0.623,-0.459 0.185,-0.206 0.334,-0.471 0.449,-0.793 0.116,-0.322 0.173,-0.704 0.173,-1.149 0,-0.443 -0.057,-0.827 -0.173,-1.149 -0.115,-0.322 -0.264,-0.586 -0.449,-0.792 -0.186,-0.206 -0.393,-0.36 -0.623,-0.46 -0.231,-0.099 -0.464,-0.15 -0.7,-0.15 -0.345,0 -0.653,0.057 -0.926,0.17 -0.274,0.111 -0.48,0.302 -0.619,0.572 H -0.063 V -6.695 H -1.29 V 0 Z M 2.09,-3.685 C 2.047,-3.497 1.981,-3.332 1.891,-3.188 1.799,-3.045 1.686,-2.93 1.549,-2.845 1.412,-2.762 1.248,-2.719 1.055,-2.719 0.866,-2.719 0.703,-2.762 0.564,-2.845 0.424,-2.93 0.309,-3.045 0.219,-3.188 0.127,-3.332 0.06,-3.497 0.017,-3.685 c -0.041,-0.188 -0.063,-0.384 -0.063,-0.59 0,-0.201 0.022,-0.396 0.063,-0.582 0.043,-0.188 0.11,-0.354 0.202,-0.498 0.09,-0.144 0.205,-0.257 0.345,-0.342 0.139,-0.085 0.302,-0.127 0.491,-0.127 0.193,0 0.357,0.042 0.494,0.127 0.137,0.085 0.25,0.198 0.342,0.342 0.09,0.144 0.156,0.31 0.199,0.498 0.043,0.186 0.063,0.381 0.063,0.582 0,0.206 -0.02,0.402 -0.063,0.59"
               style="fill:#000000;fill-opacity:1;fill-rule:nonzero;stroke:none"
               id="path1019" />
          </g>
        </g>
      </g>
      <path
         d="m 135.19718,126.04622 h 0.45508 v 0.387 h -0.45508 z m 0.45473,2.36256 h -0.45508 v -1.71062 h 0.45508 z"
         style="fill:#000000;fill-opacity:1;fill-rule:nonzero;stroke:none;stroke-width:0.352777"
         id="path1021" />
      <path
         d="m 136.95154,127.70746 h -0.96449 v -0.40358 h 0.96449 z"
         style="fill:#000000;fill-opacity:1;fill-rule:nonzero;stroke:none;stroke-width:0.352777"
         id="path1023" />
      <g
         id="g1025"
         transform="matrix(0.35277777,0,0,-0.35277777,95.544957,160.49955)">
        <g
           id="g1027"
           clip-path="url(#clipPath1031)">
          <g
             id="g1033"
             transform="translate(122.7045,95.8752)">
            <path
               d="M 0,0 C -0.085,0.141 -0.192,0.265 -0.318,0.371 -0.445,0.477 -0.589,0.559 -0.749,0.619 -0.91,0.678 -1.078,0.708 -1.254,0.708 -1.575,0.708 -1.848,0.644 -2.073,0.516 -2.296,0.387 -2.478,0.216 -2.617,0 c -0.14,-0.216 -0.241,-0.461 -0.304,-0.737 -0.064,-0.275 -0.095,-0.559 -0.095,-0.853 0,-0.281 0.031,-0.554 0.095,-0.82 0.063,-0.267 0.164,-0.505 0.304,-0.718 0.139,-0.212 0.321,-0.382 0.544,-0.511 0.225,-0.128 0.498,-0.192 0.819,-0.192 0.437,0 0.777,0.138 1.023,0.412 0.245,0.276 0.394,0.638 0.45,1.089 h 1.38 C 1.563,-2.749 1.469,-3.128 1.317,-3.466 1.167,-3.803 0.966,-4.09 0.717,-4.327 0.469,-4.566 0.179,-4.747 -0.155,-4.872 c -0.333,-0.125 -0.698,-0.187 -1.099,-0.187 -0.497,0 -0.944,0.088 -1.34,0.266 -0.397,0.18 -0.731,0.425 -1.005,0.737 -0.272,0.312 -0.481,0.68 -0.625,1.101 -0.146,0.424 -0.219,0.878 -0.219,1.365 0,0.5 0.073,0.964 0.219,1.394 0.144,0.426 0.353,0.801 0.625,1.119 0.274,0.319 0.608,0.569 1.005,0.751 0.396,0.181 0.843,0.272 1.34,0.272 0.358,0 0.695,-0.054 1.013,-0.16 C 0.078,1.68 0.363,1.526 0.613,1.322 0.865,1.119 1.072,0.868 1.237,0.567 1.4,0.268 1.503,-0.077 1.545,-0.464 H 0.163 C 0.139,-0.296 0.086,-0.141 0,0"
               style="fill:#000000;fill-opacity:1;fill-rule:nonzero;stroke:none"
               id="path1035" />
          </g>
          <g
             id="g1037"
             transform="translate(124.9759,94.3237)">
            <path
               d="M 0,0 C 0.017,0.312 0.093,0.572 0.226,0.778 0.359,0.984 0.529,1.149 0.735,1.275 0.942,1.399 1.173,1.489 1.43,1.543 1.688,1.595 1.948,1.621 2.207,1.621 2.443,1.621 2.684,1.605 2.926,1.57 3.167,1.536 3.388,1.469 3.588,1.368 3.789,1.268 3.952,1.129 4.079,0.951 4.207,0.773 4.27,0.538 4.27,0.243 V -2.28 c 0,-0.219 0.013,-0.428 0.037,-0.629 0.023,-0.199 0.066,-0.35 0.126,-0.449 H 3.126 C 3.1,-3.283 3.081,-3.206 3.067,-3.128 3.051,-3.051 3.04,-2.971 3.034,-2.889 2.828,-3.108 2.586,-3.262 2.307,-3.349 2.028,-3.437 1.743,-3.481 1.454,-3.481 c -0.225,0 -0.434,0.03 -0.627,0.085 -0.195,0.057 -0.365,0.144 -0.509,0.263 -0.145,0.118 -0.259,0.268 -0.342,0.45 -0.081,0.181 -0.122,0.397 -0.122,0.647 0,0.276 0.046,0.501 0.141,0.68 0.094,0.178 0.216,0.32 0.363,0.426 0.149,0.106 0.318,0.186 0.51,0.24 0.19,0.053 0.383,0.095 0.576,0.126 0.193,0.031 0.385,0.057 0.573,0.075 0.187,0.02 0.355,0.048 0.499,0.085 0.146,0.038 0.261,0.092 0.345,0.164 0.086,0.072 0.125,0.176 0.119,0.314 0,0.145 -0.022,0.258 -0.068,0.343 C 2.866,0.502 2.806,0.567 2.73,0.615 2.654,0.66 2.567,0.691 2.467,0.708 2.367,0.722 2.259,0.731 2.144,0.731 1.889,0.731 1.689,0.675 1.544,0.562 1.398,0.449 1.314,0.261 1.29,0 Z M 2.98,-0.985 C 2.926,-1.036 2.858,-1.075 2.776,-1.103 2.693,-1.131 2.606,-1.154 2.511,-1.173 2.418,-1.191 2.32,-1.208 2.217,-1.219 2.114,-1.232 2.011,-1.249 1.908,-1.266 1.811,-1.286 1.715,-1.311 1.621,-1.342 1.528,-1.373 1.446,-1.415 1.376,-1.469 1.306,-1.521 1.251,-1.588 1.208,-1.67 1.165,-1.752 1.145,-1.855 1.145,-1.979 c 0,-0.119 0.02,-0.219 0.063,-0.301 0.043,-0.081 0.1,-0.145 0.173,-0.193 0.073,-0.045 0.156,-0.078 0.255,-0.098 0.096,-0.018 0.196,-0.027 0.299,-0.027 0.255,0 0.451,0.044 0.59,0.13 0.14,0.089 0.243,0.193 0.309,0.316 0.067,0.121 0.108,0.245 0.124,0.369 0.014,0.126 0.022,0.226 0.022,0.301 z"
               style="fill:#000000;fill-opacity:1;fill-rule:nonzero;stroke:none"
               id="path1039" />
          </g>
          <g
             id="g1041"
             transform="translate(131.4541,95.8143)">
            <path
               d="m 0,0 v -0.9 h 0.019 c 0.06,0.15 0.141,0.289 0.244,0.416 0.103,0.129 0.221,0.239 0.355,0.329 0.132,0.091 0.275,0.161 0.427,0.211 0.15,0.05 0.309,0.075 0.472,0.075 0.085,0 0.179,-0.015 0.282,-0.046 v -1.239 c -0.06,0.013 -0.133,0.023 -0.217,0.033 -0.086,0.01 -0.168,0.015 -0.246,0.015 -0.237,0 -0.437,-0.041 -0.6,-0.123 C 0.573,-1.311 0.44,-1.42 0.34,-1.562 0.241,-1.703 0.169,-1.866 0.127,-2.054 0.085,-2.242 0.063,-2.445 0.063,-2.664 v -2.185 h -1.29 V 0 Z"
               style="fill:#000000;fill-opacity:1;fill-rule:nonzero;stroke:none"
               id="path1043" />
          </g>
          <g
             id="g1045"
             transform="translate(135.005,95.8143)">
            <path
               d="m 0,0 v -0.657 h 0.017 c 0.17,0.25 0.376,0.445 0.615,0.582 0.239,0.137 0.513,0.206 0.822,0.206 0.297,0 0.568,-0.059 0.813,-0.178 0.246,-0.118 0.431,-0.329 0.559,-0.628 0.14,0.212 0.328,0.4 0.567,0.562 0.239,0.164 0.523,0.244 0.85,0.244 C 4.492,0.131 4.722,0.1 4.934,0.038 5.146,-0.024 5.328,-0.126 5.48,-0.263 5.63,-0.4 5.749,-0.58 5.833,-0.802 5.919,-1.025 5.961,-1.291 5.961,-1.603 V -4.849 H 4.671 V -2.1 c 0,0.162 -0.006,0.315 -0.019,0.459 -0.011,0.144 -0.046,0.268 -0.1,0.375 -0.054,0.106 -0.134,0.191 -0.24,0.253 -0.107,0.062 -0.251,0.095 -0.433,0.095 -0.18,0 -0.328,-0.036 -0.44,-0.108 C 3.327,-1.098 3.24,-1.193 3.176,-1.309 3.113,-1.423 3.07,-1.556 3.048,-1.703 3.027,-1.85 3.016,-1.997 3.016,-2.147 v -2.702 h -1.29 v 2.72 c 0,0.143 -0.003,0.286 -0.01,0.426 -0.004,0.141 -0.031,0.271 -0.076,0.391 -0.046,0.117 -0.122,0.214 -0.228,0.286 -0.106,0.072 -0.261,0.108 -0.467,0.108 -0.062,0 -0.141,-0.015 -0.24,-0.043 C 0.605,-0.989 0.507,-1.043 0.413,-1.121 0.32,-1.2 0.239,-1.311 0.173,-1.458 0.106,-1.605 0.073,-1.798 0.073,-2.035 V -4.849 H -1.218 V 0 Z"
               style="fill:#000000;fill-opacity:1;fill-rule:nonzero;stroke:none"
               id="path1047" />
          </g>
          <g
             id="g1049"
             transform="translate(141.8839,94.3237)">
            <path
               d="M 0,0 C 0.017,0.312 0.093,0.572 0.226,0.778 0.359,0.984 0.529,1.149 0.736,1.275 0.942,1.399 1.173,1.489 1.43,1.543 1.688,1.595 1.948,1.621 2.207,1.621 2.443,1.621 2.684,1.605 2.926,1.57 3.167,1.536 3.388,1.469 3.588,1.368 3.789,1.268 3.952,1.129 4.079,0.951 4.207,0.773 4.27,0.538 4.27,0.243 V -2.28 c 0,-0.219 0.013,-0.428 0.037,-0.629 0.024,-0.199 0.066,-0.35 0.126,-0.449 H 3.126 C 3.1,-3.283 3.081,-3.206 3.067,-3.128 3.051,-3.051 3.04,-2.971 3.034,-2.889 2.828,-3.108 2.586,-3.262 2.307,-3.349 2.028,-3.437 1.743,-3.481 1.454,-3.481 c -0.225,0 -0.434,0.03 -0.627,0.085 -0.195,0.057 -0.365,0.144 -0.509,0.263 -0.145,0.118 -0.259,0.268 -0.342,0.45 -0.081,0.181 -0.122,0.397 -0.122,0.647 0,0.276 0.046,0.501 0.141,0.68 0.094,0.178 0.216,0.32 0.363,0.426 0.149,0.106 0.318,0.186 0.51,0.24 0.19,0.053 0.383,0.095 0.576,0.126 0.195,0.031 0.385,0.057 0.573,0.075 0.187,0.02 0.355,0.048 0.499,0.085 0.146,0.038 0.261,0.092 0.345,0.164 0.086,0.072 0.125,0.176 0.119,0.314 0,0.145 -0.022,0.258 -0.068,0.343 C 2.866,0.502 2.806,0.567 2.73,0.615 2.654,0.66 2.567,0.691 2.467,0.708 2.367,0.722 2.259,0.731 2.144,0.731 1.889,0.731 1.689,0.675 1.544,0.562 1.398,0.449 1.314,0.261 1.29,0 Z M 2.98,-0.985 C 2.926,-1.036 2.858,-1.075 2.776,-1.103 2.693,-1.131 2.606,-1.154 2.511,-1.173 2.418,-1.191 2.32,-1.208 2.217,-1.219 2.114,-1.232 2.011,-1.249 1.908,-1.266 1.811,-1.286 1.715,-1.311 1.621,-1.342 1.528,-1.373 1.446,-1.415 1.376,-1.469 1.306,-1.521 1.251,-1.588 1.208,-1.67 1.165,-1.752 1.145,-1.855 1.145,-1.979 c 0,-0.119 0.02,-0.219 0.063,-0.301 0.043,-0.081 0.1,-0.145 0.173,-0.193 0.073,-0.045 0.156,-0.078 0.255,-0.098 0.096,-0.018 0.196,-0.027 0.299,-0.027 0.255,0 0.451,0.044 0.59,0.13 0.14,0.089 0.243,0.193 0.309,0.316 0.067,0.121 0.108,0.245 0.124,0.369 0.014,0.126 0.022,0.226 0.022,0.301 z"
               style="fill:#000000;fill-opacity:1;fill-rule:nonzero;stroke:none"
               id="path1051" />
          </g>
          <g
             id="g1053"
             transform="translate(150.274,90.9656)">
            <path
               d="m 0,0 v 0.675 h -0.027 c -0.165,-0.281 -0.375,-0.484 -0.636,-0.61 -0.26,-0.124 -0.528,-0.188 -0.8,-0.188 -0.345,0 -0.629,0.048 -0.849,0.141 -0.221,0.095 -0.396,0.227 -0.522,0.399 -0.128,0.171 -0.217,0.382 -0.269,0.629 -0.051,0.247 -0.078,0.52 -0.078,0.82 v 2.983 h 1.29 V 2.11 c 0,-0.401 0.062,-0.698 0.183,-0.896 0.121,-0.196 0.335,-0.296 0.646,-0.296 0.35,0 0.604,0.108 0.763,0.324 0.156,0.216 0.236,0.572 0.236,1.065 v 2.542 h 1.29 L 1.227,0 Z"
               style="fill:#000000;fill-opacity:1;fill-rule:nonzero;stroke:none"
               id="path1055" />
          </g>
        </g>
      </g>
      <g
         id="g1057"
         transform="matrix(0.35277777,0,0,-0.35277777,149.22183,126.6984)">
        <path
           d="M 0,0 H 1.473 L 2.299,-1.266 3.116,0 H 4.543 L 2.999,-2.27 4.734,-4.849 H 3.262 L 2.28,-3.321 1.3,-4.849 h -1.446 l 1.69,2.551 z"
           style="fill:#000000;fill-opacity:1;fill-rule:nonzero;stroke:none"
           id="path1059" />
      </g>
      <g
         id="g1061"
         transform="matrix(0.35277777,0,0,-0.35277777,113.69146,129.55806)">
        <path
           d="M 0,0 H 3.618 V -0.631 H 0.659 v -1.56 H 3.393 V -2.788 H 0.659 v -1.744 h 3.01 V -5.145 H 0 Z M 2.606,1.418 1.701,0.407 H 1.232 l 0.621,1.011 z"
           style="fill:#000000;fill-opacity:1;fill-rule:nonzero;stroke:none"
           id="path1063" />
      </g>
      <g
         id="g1065"
         transform="matrix(0.35277777,0,0,-0.35277777,95.544957,160.49955)">
        <g
           id="g1067"
           clip-path="url(#clipPath1071)">
          <g
             id="g1073"
             transform="translate(58.1328,86.1152)">
            <path
               d="m 0,0 c 0.256,-0.206 0.412,-0.559 0.464,-1.061 h -0.595 c -0.035,0.231 -0.118,0.424 -0.247,0.576 -0.129,0.153 -0.336,0.23 -0.621,0.23 -0.39,0 -0.668,-0.196 -0.835,-0.588 -0.109,-0.254 -0.163,-0.567 -0.163,-0.942 0,-0.374 0.078,-0.691 0.232,-0.947 0.153,-0.257 0.395,-0.384 0.725,-0.384 0.253,0 0.454,0.08 0.603,0.238 0.147,0.16 0.25,0.378 0.306,0.654 h 0.595 c -0.068,-0.497 -0.238,-0.861 -0.51,-1.09 -0.271,-0.231 -0.619,-0.345 -1.042,-0.345 -0.475,0 -0.853,0.178 -1.137,0.538 -0.282,0.357 -0.422,0.805 -0.422,1.341 0,0.659 0.153,1.172 0.464,1.538 0.31,0.366 0.704,0.551 1.184,0.551 C -0.591,0.309 -0.257,0.206 0,0"
               style="fill:#000000;fill-opacity:1;fill-rule:nonzero;stroke:none"
               id="path1075" />
          </g>
          <g
             id="g1077"
             transform="translate(61.8513,85.9402)">
            <path
               d="m 0,0 c 0.321,-0.322 0.483,-0.796 0.483,-1.42 0,-0.605 -0.143,-1.103 -0.424,-1.497 -0.284,-0.396 -0.722,-0.592 -1.318,-0.592 -0.497,0 -0.891,0.175 -1.183,0.523 -0.293,0.348 -0.438,0.817 -0.438,1.404 0,0.631 0.153,1.133 0.462,1.505 0.307,0.374 0.721,0.561 1.24,0.561 C -0.714,0.484 -0.32,0.322 0,0 m -0.378,-2.492 c 0.148,0.315 0.223,0.666 0.223,1.054 0,0.35 -0.054,0.634 -0.162,0.853 -0.169,0.346 -0.462,0.518 -0.878,0.518 -0.369,0 -0.637,-0.147 -0.805,-0.44 -0.168,-0.294 -0.252,-0.648 -0.252,-1.064 0,-0.398 0.084,-0.73 0.252,-0.996 0.168,-0.267 0.434,-0.399 0.798,-0.399 0.401,0 0.675,0.158 0.824,0.474"
               style="fill:#000000;fill-opacity:1;fill-rule:nonzero;stroke:none"
               id="path1079" />
          </g>
        </g>
      </g>
      <path
         d="m 117.7756,131.37282 h 0.21555 v -1.81469 h -0.21555 z"
         style="fill:#000000;fill-opacity:1;fill-rule:nonzero;stroke:none;stroke-width:0.352777"
         id="path1081" />
      <g
         id="g1083"
         transform="matrix(0.35277777,0,0,-0.35277777,95.544957,160.49955)">
        <g
           id="g1085"
           clip-path="url(#clipPath1089)">
          <g
             id="g1091"
             transform="translate(66.72,86.2114)">
            <path
               d="m 0,0 c 0.241,-0.124 0.424,-0.286 0.549,-0.485 0.122,-0.19 0.203,-0.411 0.243,-0.662 0.036,-0.172 0.054,-0.448 0.054,-0.825 h -2.643 c 0.011,-0.383 0.098,-0.688 0.26,-0.919 0.161,-0.23 0.411,-0.346 0.75,-0.346 0.317,0 0.568,0.109 0.757,0.326 0.106,0.128 0.18,0.273 0.225,0.44 h 0.6 C 0.779,-2.608 0.727,-2.762 0.638,-2.932 0.548,-3.1 0.448,-3.239 0.339,-3.347 0.154,-3.533 -0.073,-3.659 -0.345,-3.724 -0.491,-3.762 -0.656,-3.78 -0.841,-3.78 c -0.448,0 -0.829,0.17 -1.141,0.51 -0.314,0.338 -0.469,0.815 -0.469,1.427 0,0.601 0.157,1.091 0.472,1.467 C -1.666,0 -1.254,0.188 -0.746,0.188 -0.489,0.188 -0.241,0.124 0,0 m 0.219,-1.472 c -0.026,0.272 -0.083,0.491 -0.172,0.655 -0.166,0.302 -0.443,0.454 -0.831,0.454 -0.278,0 -0.511,-0.104 -0.7,-0.314 -0.188,-0.207 -0.288,-0.474 -0.299,-0.795 z"
               style="fill:#000000;fill-opacity:1;fill-rule:nonzero;stroke:none"
               id="path1093" />
          </g>
          <g
             id="g1095"
             transform="translate(70.3348,87.7085)">
            <path
               d="M 0,0 H 0.967 L 2.4,-4.349 3.824,0 H 4.783 V -5.144 H 4.139 v 3.036 c 0,0.105 0.003,0.279 0.008,0.521 0.003,0.244 0.006,0.504 0.006,0.781 L 2.73,-5.144 H 2.06 l -1.436,4.338 v -0.157 c 0,-0.125 0.003,-0.318 0.011,-0.576 0.006,-0.259 0.009,-0.448 0.009,-0.569 V -5.144 H 0 Z"
               style="fill:#000000;fill-opacity:1;fill-rule:nonzero;stroke:none"
               id="path1097" />
          </g>
        </g>
      </g>
      <path
         d="m 122.35713,129.81001 h 0.21872 v -0.25224 h -0.21872 z m 0,1.56281 h 0.21872 v -1.31657 h -0.21872 z"
         style="fill:#000000;fill-opacity:1;fill-rule:nonzero;stroke:none;stroke-width:0.352777"
         id="path1099" />
      <g
         id="g1101"
         transform="matrix(0.35277777,0,0,-0.35277777,95.544957,160.49955)">
        <g
           id="g1103"
           clip-path="url(#clipPath1107)">
          <g
             id="g1109"
             transform="translate(77.4524,86.3148)">
            <path
               d="m 0,0 h 0.58 v -0.533 c 0.172,0.221 0.354,0.378 0.546,0.474 0.193,0.095 0.407,0.142 0.641,0.142 0.516,0 0.865,-0.184 1.045,-0.555 0.1,-0.205 0.15,-0.494 0.15,-0.873 v -2.406 h -0.62 v 2.364 c 0,0.228 -0.033,0.413 -0.1,0.554 C 2.134,-0.6 1.938,-0.484 1.653,-0.484 1.507,-0.484 1.389,-0.498 1.297,-0.529 1.129,-0.58 0.982,-0.683 0.855,-0.837 0.754,-0.961 0.687,-1.088 0.657,-1.221 0.625,-1.353 0.611,-1.541 0.611,-1.786 V -3.751 H 0 Z"
               style="fill:#000000;fill-opacity:1;fill-rule:nonzero;stroke:none"
               id="path1111" />
          </g>
          <g
             id="g1113"
             transform="translate(83.4824,86.2114)">
            <path
               d="m 0,0 c 0.241,-0.124 0.424,-0.286 0.549,-0.485 0.122,-0.19 0.203,-0.411 0.243,-0.662 0.036,-0.172 0.054,-0.448 0.054,-0.825 h -2.643 c 0.011,-0.383 0.098,-0.688 0.26,-0.919 0.161,-0.23 0.411,-0.346 0.75,-0.346 0.317,0 0.568,0.109 0.757,0.326 0.106,0.128 0.18,0.273 0.225,0.44 h 0.6 C 0.779,-2.608 0.727,-2.762 0.638,-2.932 0.548,-3.1 0.448,-3.239 0.339,-3.347 0.155,-3.533 -0.073,-3.659 -0.345,-3.724 -0.491,-3.762 -0.656,-3.78 -0.841,-3.78 c -0.448,0 -0.829,0.17 -1.141,0.51 -0.314,0.338 -0.469,0.815 -0.469,1.427 0,0.601 0.157,1.091 0.472,1.467 C -1.666,0 -1.254,0.188 -0.746,0.188 -0.489,0.188 -0.241,0.124 0,0 m 0.219,-1.472 c -0.026,0.272 -0.083,0.491 -0.171,0.655 -0.167,0.302 -0.444,0.454 -0.832,0.454 -0.278,0 -0.511,-0.104 -0.7,-0.314 -0.188,-0.207 -0.288,-0.474 -0.299,-0.795 z"
               style="fill:#000000;fill-opacity:1;fill-rule:nonzero;stroke:none"
               id="path1115" />
          </g>
          <g
             id="g1117"
             transform="translate(85.3625,83.741)">
            <path
               d="m 0,0 c 0.019,-0.211 0.07,-0.371 0.155,-0.484 0.159,-0.202 0.431,-0.304 0.819,-0.304 0.229,0 0.434,0.051 0.608,0.152 0.176,0.102 0.264,0.258 0.264,0.471 0,0.162 -0.071,0.284 -0.21,0.368 C 1.545,0.255 1.368,0.314 1.105,0.382 L 0.611,0.508 c -0.315,0.079 -0.548,0.168 -0.696,0.267 -0.267,0.17 -0.4,0.405 -0.4,0.706 0,0.354 0.126,0.642 0.376,0.862 0.251,0.219 0.589,0.329 1.013,0.329 0.554,0 0.955,-0.167 1.2,-0.497 C 2.258,1.964 2.332,1.739 2.328,1.495 H 1.751 C 1.739,1.637 1.689,1.765 1.601,1.883 1.458,2.046 1.208,2.129 0.855,2.129 0.619,2.129 0.44,2.084 0.318,1.994 0.196,1.902 0.136,1.783 0.136,1.634 0.136,1.471 0.215,1.34 0.375,1.242 0.467,1.185 0.603,1.134 0.784,1.088 L 1.194,0.987 C 1.642,0.878 1.941,0.771 2.093,0.668 2.331,0.508 2.449,0.255 2.449,-0.092 2.449,-0.425 2.326,-0.713 2.077,-0.956 1.829,-1.2 1.45,-1.321 0.942,-1.321 c -0.548,0 -0.936,0.128 -1.164,0.381 -0.228,0.252 -0.35,0.566 -0.365,0.94 z"
               style="fill:#000000;fill-opacity:1;fill-rule:nonzero;stroke:none"
               id="path1119" />
          </g>
        </g>
      </g>
      <path
         d="m 126.79542,130.78191 h 0.60114 v -0.22824 h -0.60114 z"
         style="fill:#000000;fill-opacity:1;fill-rule:nonzero;stroke:none;stroke-width:0.352777"
         id="path1121" />
      <g
         id="g1123"
         transform="matrix(0.35277777,0,0,-0.35277777,128.68374,129.55795)">
        <path
           d="m 0,0 v -0.613 h -1.68 v -4.531 h -0.681 v 4.531 h -1.68 V 0 Z"
           style="fill:#000000;fill-opacity:1;fill-rule:nonzero;stroke:none"
           id="path1125" />
      </g>
      <g
         id="g1127"
         transform="matrix(0.35277777,0,0,-0.35277777,95.544957,160.49955)">
        <g
           id="g1129"
           clip-path="url(#clipPath1133)">
          <g
             id="g1135"
             transform="translate(95.7616,86.2111)">
            <path
               d="m 0,0 c 0.241,-0.124 0.424,-0.286 0.549,-0.485 0.122,-0.188 0.203,-0.409 0.244,-0.662 0.035,-0.172 0.054,-0.448 0.054,-0.826 h -2.644 c 0.013,-0.382 0.098,-0.688 0.26,-0.918 0.161,-0.23 0.411,-0.346 0.75,-0.346 0.317,0 0.57,0.109 0.759,0.326 0.104,0.128 0.178,0.275 0.223,0.44 H 0.796 C 0.781,-2.608 0.727,-2.762 0.638,-2.93 0.548,-3.1 0.45,-3.239 0.339,-3.345 0.155,-3.533 -0.073,-3.659 -0.345,-3.724 -0.491,-3.762 -0.655,-3.78 -0.839,-3.78 c -0.45,0 -0.831,0.17 -1.143,0.51 -0.314,0.34 -0.469,0.815 -0.469,1.427 0,0.603 0.157,1.091 0.472,1.467 C -1.664,0 -1.252,0.188 -0.746,0.188 -0.489,0.188 -0.241,0.126 0,0 M 0.219,-1.472 C 0.195,-1.2 0.138,-0.98 0.048,-0.817 c -0.167,0.304 -0.444,0.454 -0.832,0.454 -0.278,0 -0.511,-0.104 -0.7,-0.312 -0.188,-0.209 -0.288,-0.475 -0.299,-0.797 z M -0.025,1.613 -0.931,0.601 H -1.4 l 0.621,1.012 z"
               style="fill:#000000;fill-opacity:1;fill-rule:nonzero;stroke:none"
               id="path1137" />
          </g>
        </g>
      </g>
      <path
         d="m 129.86741,131.37282 h 0.21555 v -1.81469 h -0.21555 z"
         style="fill:#000000;fill-opacity:1;fill-rule:nonzero;stroke:none;stroke-width:0.352777"
         id="path1139" />
      <g
         id="g1141"
         transform="matrix(0.35277777,0,0,-0.35277777,95.544957,160.49955)">
        <g
           id="g1143"
           clip-path="url(#clipPath1147)">
          <g
             id="g1149"
             transform="translate(100.9955,86.2111)">
            <path
               d="m 0,0 c 0.241,-0.124 0.424,-0.286 0.549,-0.485 0.122,-0.188 0.203,-0.409 0.244,-0.662 0.035,-0.172 0.054,-0.448 0.054,-0.826 h -2.644 c 0.013,-0.382 0.098,-0.688 0.26,-0.918 0.161,-0.23 0.411,-0.346 0.75,-0.346 0.317,0 0.57,0.109 0.759,0.326 0.104,0.128 0.18,0.275 0.223,0.44 H 0.796 C 0.781,-2.608 0.727,-2.762 0.638,-2.93 0.548,-3.1 0.45,-3.239 0.339,-3.345 0.155,-3.533 -0.073,-3.659 -0.345,-3.724 -0.491,-3.762 -0.656,-3.78 -0.839,-3.78 c -0.45,0 -0.831,0.17 -1.143,0.51 -0.314,0.34 -0.469,0.815 -0.469,1.427 0,0.603 0.157,1.091 0.472,1.467 C -1.664,0 -1.254,0.188 -0.746,0.188 -0.489,0.188 -0.241,0.126 0,0 M 0.219,-1.472 C 0.195,-1.2 0.138,-0.98 0.048,-0.817 c -0.167,0.304 -0.444,0.454 -0.832,0.454 -0.278,0 -0.511,-0.104 -0.7,-0.312 -0.188,-0.209 -0.288,-0.475 -0.299,-0.797 z M -0.025,1.613 -0.931,0.601 H -1.4 l 0.621,1.012 z"
               style="fill:#000000;fill-opacity:1;fill-rule:nonzero;stroke:none"
               id="path1151" />
          </g>
          <g
             id="g1153"
             transform="translate(104.9565,86.1152)">
            <path
               d="M 0,0 C 0.257,-0.206 0.412,-0.559 0.464,-1.061 H -0.13 c -0.036,0.231 -0.119,0.424 -0.248,0.576 -0.129,0.153 -0.336,0.23 -0.621,0.23 -0.39,0 -0.667,-0.196 -0.835,-0.588 -0.109,-0.254 -0.163,-0.567 -0.163,-0.942 0,-0.374 0.078,-0.691 0.231,-0.947 0.154,-0.257 0.396,-0.384 0.726,-0.384 0.253,0 0.454,0.08 0.603,0.238 0.147,0.16 0.25,0.378 0.307,0.654 h 0.594 c -0.068,-0.497 -0.238,-0.861 -0.51,-1.09 -0.271,-0.231 -0.619,-0.345 -1.042,-0.345 -0.475,0 -0.853,0.178 -1.137,0.538 -0.282,0.357 -0.424,0.805 -0.424,1.341 0,0.659 0.155,1.172 0.466,1.538 0.31,0.366 0.704,0.551 1.184,0.551 C -0.591,0.309 -0.257,0.206 0,0"
               style="fill:#000000;fill-opacity:1;fill-rule:nonzero;stroke:none"
               id="path1155" />
          </g>
          <g
             id="g1157"
             transform="translate(108.675,85.9402)">
            <path
               d="m 0,0 c 0.321,-0.322 0.483,-0.796 0.483,-1.42 0,-0.605 -0.143,-1.103 -0.424,-1.497 -0.284,-0.396 -0.722,-0.592 -1.318,-0.592 -0.497,0 -0.891,0.175 -1.183,0.523 -0.292,0.348 -0.438,0.817 -0.438,1.404 0,0.631 0.153,1.133 0.462,1.505 0.307,0.374 0.721,0.561 1.24,0.561 C -0.714,0.484 -0.32,0.322 0,0 m -0.378,-2.492 c 0.148,0.315 0.223,0.666 0.223,1.054 0,0.35 -0.054,0.634 -0.162,0.853 -0.169,0.346 -0.462,0.518 -0.878,0.518 -0.369,0 -0.637,-0.147 -0.805,-0.44 -0.168,-0.294 -0.252,-0.648 -0.252,-1.064 0,-0.398 0.084,-0.73 0.252,-0.996 0.168,-0.267 0.434,-0.399 0.798,-0.399 0.401,0 0.675,0.158 0.824,0.474"
               style="fill:#000000;fill-opacity:1;fill-rule:nonzero;stroke:none"
               id="path1159" />
          </g>
          <g
             id="g1161"
             transform="translate(109.8221,86.3148)">
            <path
               d="m 0,0 h 0.603 v -0.533 c 0.146,0.185 0.277,0.319 0.394,0.404 0.202,0.142 0.43,0.212 0.686,0.212 0.29,0 0.523,-0.073 0.698,-0.22 0.1,-0.084 0.19,-0.208 0.273,-0.371 0.134,0.201 0.294,0.35 0.478,0.448 0.184,0.096 0.388,0.143 0.617,0.143 0.488,0 0.822,-0.181 0.998,-0.545 0.095,-0.197 0.142,-0.46 0.142,-0.791 V -3.751 H 4.254 v 2.605 c 0,0.25 -0.06,0.422 -0.18,0.515 C 3.952,-0.538 3.805,-0.49 3.631,-0.49 3.39,-0.49 3.184,-0.574 3.012,-0.739 2.839,-0.905 2.752,-1.182 2.752,-1.569 V -3.751 H 2.131 v 2.449 c 0,0.254 -0.03,0.439 -0.088,0.557 -0.094,0.175 -0.266,0.261 -0.52,0.261 -0.229,0 -0.44,-0.091 -0.628,-0.276 C 0.705,-0.945 0.611,-1.278 0.611,-1.762 V -3.751 H 0 Z"
               style="fill:#000000;fill-opacity:1;fill-rule:nonzero;stroke:none"
               id="path1163" />
          </g>
        </g>
      </g>
    </g>
  </g>
</svg>
